<svg width="722" height="458" viewBox="0 0 722 458" fill="none" xmlns="http://www.w3.org/2000/svg">
<g filter="url(#filter0_i_609_104)">
<rect width="722" height="458" rx="25" fill="url(#paint0_linear_609_104)"/>
</g>
<path d="M228.2 363.456C226.936 363.456 225.824 363.208 224.864 362.712C223.904 362.216 223.16 361.488 222.632 360.528C222.104 359.568 221.84 358.392 221.84 357V356.232H225.224V357.288C225.224 358.216 225.496 358.952 226.04 359.496C226.584 360.024 227.296 360.288 228.176 360.288C229.072 360.288 229.784 360.024 230.312 359.496C230.856 358.952 231.128 358.216 231.128 357.288V348H234.536V357C234.536 358.392 234.272 359.568 233.744 360.528C233.216 361.488 232.48 362.216 231.536 362.712C230.592 363.208 229.48 363.456 228.2 363.456ZM223.976 348.48V345.48H234.536V348.48H223.976ZM248.182 363.456C246.55 363.456 245.174 363.144 244.054 362.52C242.934 361.896 242.078 361.024 241.486 359.904C240.91 358.768 240.622 357.44 240.622 355.92V345.48H244.03V356.112C244.03 356.944 244.19 357.68 244.51 358.32C244.83 358.944 245.294 359.432 245.902 359.784C246.526 360.12 247.286 360.288 248.182 360.288C249.062 360.288 249.806 360.12 250.414 359.784C251.038 359.432 251.502 358.944 251.806 358.32C252.126 357.696 252.286 356.96 252.286 356.112V345.48H255.694V355.92C255.694 357.44 255.406 358.768 254.83 359.904C254.27 361.024 253.43 361.896 252.31 362.52C251.19 363.144 249.814 363.456 248.182 363.456ZM262.085 363V345.48H265.493V363H262.085ZM265.013 363V360H272.573V363H265.013ZM277.799 363V345.48H281.207V363H277.799ZM296.211 363.456C294.627 363.456 293.251 363.176 292.083 362.616C290.931 362.056 289.971 361.328 289.203 360.432C288.451 359.52 287.883 358.544 287.499 357.504C287.131 356.448 286.947 355.432 286.947 354.456V353.928C286.947 352.856 287.139 351.792 287.523 350.736C287.907 349.664 288.483 348.696 289.251 347.832C290.035 346.968 291.003 346.28 292.155 345.768C293.307 345.24 294.659 344.976 296.211 344.976C297.747 344.976 299.091 345.24 300.243 345.768C301.395 346.28 302.355 346.968 303.123 347.832C303.907 348.696 304.491 349.664 304.875 350.736C305.259 351.792 305.451 352.856 305.451 353.928V354.456C305.451 355.432 305.259 356.448 304.875 357.504C304.507 358.544 303.939 359.52 303.171 360.432C302.419 361.328 301.459 362.056 300.291 362.616C299.139 363.176 297.779 363.456 296.211 363.456ZM296.211 360.288C297.107 360.288 297.907 360.128 298.611 359.808C299.331 359.488 299.939 359.048 300.435 358.488C300.947 357.912 301.331 357.264 301.587 356.544C301.859 355.808 301.995 355.032 301.995 354.216C301.995 353.336 301.859 352.528 301.587 351.792C301.331 351.056 300.947 350.416 300.435 349.872C299.939 349.328 299.331 348.904 298.611 348.6C297.891 348.296 297.091 348.144 296.211 348.144C295.315 348.144 294.507 348.296 293.787 348.6C293.067 348.904 292.451 349.328 291.939 349.872C291.443 350.416 291.059 351.056 290.787 351.792C290.531 352.528 290.403 353.336 290.403 354.216C290.403 355.032 290.531 355.808 290.787 356.544C291.059 357.264 291.443 357.912 291.939 358.488C292.451 359.048 293.067 359.488 293.787 359.808C294.507 360.128 295.315 360.288 296.211 360.288ZM326.62 363.456C325.036 363.456 323.676 363.176 322.54 362.616C321.404 362.056 320.476 361.328 319.756 360.432C319.052 359.536 318.532 358.56 318.196 357.504C317.86 356.448 317.692 355.432 317.692 354.456V353.928C317.692 352.84 317.86 351.768 318.196 350.712C318.548 349.656 319.084 348.696 319.804 347.832C320.524 346.968 321.436 346.28 322.54 345.768C323.66 345.24 324.98 344.976 326.5 344.976C328.084 344.976 329.46 345.264 330.628 345.84C331.812 346.4 332.756 347.2 333.46 348.24C334.164 349.264 334.588 350.464 334.732 351.84H331.3C331.172 351.04 330.884 350.368 330.436 349.824C330.004 349.264 329.452 348.848 328.78 348.576C328.108 348.288 327.348 348.144 326.5 348.144C325.636 348.144 324.868 348.296 324.196 348.6C323.524 348.888 322.964 349.304 322.516 349.848C322.068 350.392 321.724 351.032 321.484 351.768C321.26 352.504 321.148 353.32 321.148 354.216C321.148 355.08 321.26 355.88 321.484 356.616C321.724 357.352 322.076 358 322.54 358.56C323.004 359.104 323.572 359.528 324.244 359.832C324.932 360.136 325.724 360.288 326.62 360.288C327.932 360.288 329.036 359.968 329.932 359.328C330.844 358.672 331.396 357.76 331.588 356.592H335.02C334.86 357.84 334.436 358.984 333.748 360.024C333.06 361.064 332.116 361.896 330.916 362.52C329.716 363.144 328.284 363.456 326.62 363.456ZM350.804 357.624V354.672H354.212C354.9 354.672 355.476 354.536 355.94 354.264C356.42 353.992 356.78 353.616 357.02 353.136C357.276 352.656 357.404 352.104 357.404 351.48C357.404 350.856 357.276 350.304 357.02 349.824C356.78 349.344 356.42 348.976 355.94 348.72C355.476 348.448 354.9 348.312 354.212 348.312H350.804V345.36H353.924C355.396 345.36 356.644 345.6 357.668 346.08C358.708 346.56 359.5 347.248 360.044 348.144C360.588 349.024 360.86 350.072 360.86 351.288V351.672C360.86 352.888 360.588 353.944 360.044 354.84C359.5 355.72 358.708 356.408 357.668 356.904C356.644 357.384 355.396 357.624 353.924 357.624H350.804ZM347.876 363V345.36H351.284V363H347.876ZM366.073 363V345.48H369.409V363H366.073ZM368.929 363V360.12H376.873V363H368.929ZM368.929 355.536V352.656H376.249V355.536H368.929ZM368.929 348.36V345.48H376.681V348.36H368.929ZM382.769 363V345.36H386.177V363H382.769ZM393.473 363L388.097 355.368H391.913L397.457 363H393.473ZM385.169 357.144V354.384H389.633C390.257 354.384 390.793 354.256 391.241 354C391.705 353.744 392.065 353.384 392.321 352.92C392.577 352.456 392.705 351.928 392.705 351.336C392.705 350.728 392.577 350.192 392.321 349.728C392.065 349.264 391.705 348.904 391.241 348.648C390.793 348.392 390.257 348.264 389.633 348.264H385.169V345.36H389.273C390.681 345.36 391.897 345.568 392.921 345.984C393.961 346.4 394.761 347.032 395.321 347.88C395.881 348.728 396.161 349.792 396.161 351.072V351.456C396.161 352.752 395.873 353.816 395.297 354.648C394.737 355.48 393.945 356.104 392.921 356.52C391.897 356.936 390.681 357.144 389.273 357.144H385.169ZM402.443 363V345.48H405.779V363H402.443ZM405.299 363V360.12H413.243V363H405.299ZM405.299 355.536V352.656H412.619V355.536H405.299ZM405.299 348.36V345.48H413.051V348.36H405.299ZM419.188 363V345.48H422.596V363H419.188ZM429.368 363V345.36H432.776V363H429.368ZM440.072 363L434.696 355.368H438.512L444.056 363H440.072ZM431.768 357.144V354.384H436.232C436.856 354.384 437.392 354.256 437.84 354C438.304 353.744 438.664 353.384 438.92 352.92C439.176 352.456 439.304 351.928 439.304 351.336C439.304 350.728 439.176 350.192 438.92 349.728C438.664 349.264 438.304 348.904 437.84 348.648C437.392 348.392 436.856 348.264 436.232 348.264H431.768V345.36H435.872C437.28 345.36 438.496 345.568 439.52 345.984C440.56 346.4 441.36 347.032 441.92 347.88C442.48 348.728 442.76 349.792 442.76 351.072V351.456C442.76 352.752 442.472 353.816 441.896 354.648C441.336 355.48 440.544 356.104 439.52 356.52C438.496 356.936 437.28 357.144 435.872 357.144H431.768ZM447.313 363L453.289 345.48H458.857L465.001 363H461.497L456.289 347.808L457.513 348.336H454.513L455.761 347.808L450.721 363H447.313ZM451.489 358.344L452.569 355.464H459.673L460.729 358.344H451.489Z" fill="#FEFBFF"/>
<path fill-rule="evenodd" clip-rule="evenodd" d="M94.6654 319.851C94.6654 319.852 94.6657 319.826 94.6766 319.771C94.6871 319.717 94.7054 319.646 94.7347 319.559C94.7935 319.385 94.8901 319.165 95.0334 318.917C95.32 318.421 95.7759 317.841 96.4342 317.301C97.733 316.235 99.8636 315.292 103.14 315.533C116.1 316.484 123.415 325.41 123.415 332.161V372.168C123.415 372.805 123.268 373.099 123.132 373.241C123.004 373.375 122.718 373.546 122.028 373.546H114.306C113.616 373.546 113.33 373.375 113.202 373.241C113.066 373.1 112.919 372.805 112.919 372.168V335.238C112.919 332.828 111.735 330.421 109.988 328.634C108.238 326.842 105.817 325.566 103.213 325.566H94.6654V319.851ZM103.213 327.566H94.6654V372.168C94.6654 373.162 94.4817 374.108 93.7928 374.763C93.1156 375.407 92.1813 375.546 91.2784 375.546H83.4154C82.6084 375.546 81.7233 375.389 81.0382 374.792C80.3257 374.171 80.0284 373.251 80.0284 372.168V334.819C80.0284 332.956 81.0921 330.668 82.6635 328.878C84.2482 327.074 86.5354 325.566 89.1714 325.566H92.6654V319.851C92.6654 319.284 92.9171 318.582 93.3016 317.917C93.7056 317.217 94.317 316.45 95.1659 315.754C96.8815 314.347 99.525 313.262 103.287 313.538C117.005 314.545 125.415 324.098 125.415 332.161V372.168C125.415 373.069 125.212 373.963 124.575 374.626C123.931 375.297 123.024 375.546 122.028 375.546H114.306C113.311 375.546 112.403 375.297 111.759 374.626C111.123 373.963 110.919 373.069 110.919 372.168V335.238C110.919 333.463 110.026 331.534 108.558 330.031C107.093 328.532 105.161 327.566 103.213 327.566ZM89.1714 327.566H92.6654V372.168C92.6654 372.991 92.498 373.235 92.4146 373.314C92.3196 373.404 92.0604 373.546 91.2784 373.546H83.4154C82.8182 373.546 82.5098 373.422 82.3524 373.285C82.2226 373.171 82.0284 372.902 82.0284 372.168V334.819C82.0284 333.604 82.7896 331.766 84.1664 330.198C85.5299 328.645 87.3142 327.566 89.1714 327.566ZM164.111 381.128C164.111 381.13 164.11 381.156 164.1 381.209C164.089 381.262 164.071 381.333 164.042 381.42C163.983 381.595 163.886 381.814 163.743 382.063C163.457 382.559 163.001 383.139 162.342 383.679C161.043 384.744 158.913 385.687 155.636 385.447C142.676 384.495 135.361 375.569 135.361 368.819V328.812C135.361 328.175 135.508 327.88 135.644 327.739C135.772 327.605 136.058 327.434 136.748 327.434H144.471C145.16 327.434 145.446 327.605 145.575 327.739C145.71 327.88 145.858 328.175 145.858 328.812V365.741C145.858 368.151 147.042 370.559 148.788 372.346C150.539 374.137 152.96 375.414 155.563 375.414H164.111V381.128V381.128ZM155.563 373.414H164.111V328.812C164.111 327.817 164.295 326.872 164.984 326.216C165.661 325.572 166.595 325.434 167.498 325.434H175.361C176.168 325.434 177.053 325.59 177.738 326.187C178.451 326.808 178.748 327.728 178.748 328.812V366.161C178.748 368.023 177.684 370.312 176.113 372.101C174.528 373.906 172.241 375.414 169.605 375.414H166.111V381.128C166.111 381.695 165.859 382.397 165.475 383.063C165.071 383.762 164.459 384.529 163.611 385.225C161.895 386.632 159.252 387.718 155.49 387.441C141.772 386.434 133.361 376.882 133.361 368.819V328.812C133.361 327.91 133.565 327.016 134.201 326.353C134.845 325.683 135.753 325.434 136.748 325.434H144.471C145.466 325.434 146.373 325.683 147.017 326.353C147.654 327.016 147.858 327.91 147.858 328.812V365.741C147.858 367.516 148.75 369.445 150.219 370.948C151.683 372.447 153.615 373.414 155.563 373.414ZM169.605 373.414H166.111V328.812C166.111 327.988 166.279 327.745 166.362 327.666C166.457 327.575 166.716 327.434 167.498 327.434H175.361C175.958 327.434 176.267 327.558 176.424 327.695C176.554 327.808 176.748 328.077 176.748 328.812V366.161C176.748 367.376 175.987 369.214 174.61 370.782C173.247 372.334 171.462 373.414 169.605 373.414Z" fill="#FEFBFF"/>
<circle cx="581.889" cy="86.4971" r="45.7505" fill="#E71924"/>
<circle cx="637.647" cy="86.4971" r="45.7505" fill="#F99F19"/>
<path fill-rule="evenodd" clip-rule="evenodd" d="M609.768 122.595C620.636 114.23 627.64 101.092 627.64 86.3172C627.64 71.5427 620.636 58.404 609.768 50.0396C598.9 58.404 591.897 71.5427 591.897 86.3172C591.897 101.092 598.9 114.23 609.768 122.595Z" fill="#F26520"/>
<rect x="80.4209" y="156.195" width="97.9347" height="69.3406" rx="6.07624" fill="url(#paint1_linear_609_104)" stroke="#211F21" stroke-width="2.14455"/>
<path d="M80.7783 178.713H110.087" stroke="#211F21" stroke-width="2" stroke-linecap="round"/>
<path d="M80.7783 200.873H109.445" stroke="#211F21" stroke-width="2" stroke-linecap="round"/>
<path d="M149.404 200.873H177.998" stroke="#211F21" stroke-width="2" stroke-linecap="round"/>
<path d="M148.975 179.428H177.998" stroke="#211F21" stroke-width="2" stroke-linecap="round"/>
<circle cx="129.388" cy="166.561" r="2.14455" fill="#211F21"/>
<path d="M231.053 205.824C236.325 192.59 236.926 185.119 231.053 171.645C230.43 170.215 231.053 169.024 231.768 168.786C232.483 168.547 233.589 168.786 234.27 170.215C241.188 184.73 240.767 192.87 234.627 207.387C233.912 208.817 232.575 208.998 231.768 208.46C230.824 207.831 230.608 206.941 231.053 205.824Z" fill="#FEFBFF"/>
<path d="M223.547 172.717C222.832 173.075 222.375 174.43 223.19 175.934C227.999 185.94 227.801 191.662 223.19 202.026C222.686 203.071 222.998 204.226 223.905 204.528C224.977 204.886 225.913 204.125 226.406 203.098C231.701 192.084 231.84 185.756 226.406 174.147C225.905 173.075 224.619 172.181 223.547 172.717Z" fill="#FEFBFF"/>
<path d="M216.399 177.364C215.326 177.721 215.136 178.908 215.684 180.223C218.53 187.063 218.979 190.898 215.684 197.737C215.041 198.929 214.83 200.193 216.041 200.596C217.252 201 218.126 200.363 218.543 199.524C222.766 191.149 221.82 186.454 218.543 178.079C218.263 177.364 217.471 177.006 216.399 177.364Z" fill="#FEFBFF"/>
<path d="M208.893 180.223C207.82 180.938 207.668 182.022 208.535 183.797C210.344 187.564 210.303 189.68 208.535 193.448C207.713 195.11 207.463 197.022 208.893 197.38C210.322 197.737 210.957 197.229 211.752 195.235C213.578 189.987 213.756 187.02 211.752 181.653C211.291 180.261 210.322 179.508 208.893 180.223Z" fill="#FEFBFF"/>
<path d="M145.115 170.849C142.372 161.508 137.251 156.91 129.03 156.91C119.023 156.91 116.194 164.53 110.087 178.355C113.998 187.507 114.039 192.437 110.087 200.873C116.494 219.254 121.24 224.915 129.388 224.821C140.111 224.821 143.163 215.733 149.046 200.873C145.952 192.497 145.622 187.875 148.5 179.5" stroke="#211F21" stroke-width="2" stroke-linecap="round"/>
<defs>
<filter id="filter0_i_609_104" x="0" y="0" width="725" height="461" filterUnits="userSpaceOnUse" color-interpolation-filters="sRGB">
<feFlood flood-opacity="0" result="BackgroundImageFix"/>
<feBlend mode="normal" in="SourceGraphic" in2="BackgroundImageFix" result="shape"/>
<feColorMatrix in="SourceAlpha" type="matrix" values="0 0 0 0 0 0 0 0 0 0 0 0 0 0 0 0 0 0 127 0" result="hardAlpha"/>
<feOffset dx="3" dy="3"/>
<feGaussianBlur stdDeviation="3"/>
<feComposite in2="hardAlpha" operator="arithmetic" k2="-1" k3="1"/>
<feColorMatrix type="matrix" values="0 0 0 0 1 0 0 0 0 1 0 0 0 0 1 0 0 0 0.25 0"/>
<feBlend mode="normal" in2="shape" result="effect1_innerShadow_609_104"/>
</filter>
<linearGradient id="paint0_linear_609_104" x1="610.09" y1="61.83" x2="354.096" y2="526.995" gradientUnits="userSpaceOnUse">
<stop stop-color="#A950C4"/>
<stop offset="1" stop-color="#82269E"/>
</linearGradient>
<linearGradient id="paint1_linear_609_104" x1="171" y1="165" x2="87" y2="221" gradientUnits="userSpaceOnUse">
<stop stop-color="#F4F4F4"/>
<stop offset="1" stop-color="#D6D6D6"/>
</linearGradient>
</defs>
</svg>
